<svg xmlns="http://www.w3.org/2000/svg" viewBox="0 0 109.4 85.37"><defs><style>.cls-1{fill:#fff;}</style></defs><g id="图层_2" data-name="图层 2"><g id="图层_1-2" data-name="图层 1"><path class="cls-1" d="M82.91,82.69a72.16,72.16,0,0,1-8.45-1.77A124.31,124.31,0,0,0,48.59,59.06,124.75,124.75,0,0,0,15.66,44.5c-1.55-1.71-3-3.45-4.34-5.2A160.71,160.71,0,0,0,52.68,26c3.71-1.78,7.41-3.75,11-5.83l.78-.46C76.67,12.56,85,7.75,93,0c-5.51,9.84-7.62,19.37-10.41,33.37C82,36.7,81.42,40.09,81,43.45a126.55,126.55,0,0,0,1.87,39.24"/><path class="cls-1" d="M89.94,85.37a49.6,49.6,0,0,1-6-.39,71.71,71.71,0,0,1-10.28-2.07A124.93,124.93,0,0,1,40.07,67.52,129.19,129.19,0,0,1,14.26,46.14,82.84,82.84,0,0,1,8.7,39.38C.15,27.78-2.19,17.69,2.09,11,9.63-.84,36.17,2.3,63.81,18.27c1.91,1.1,3.78,2.24,5.56,3.38a141.86,141.86,0,0,1,14.94,11c20.27,17.09,29.53,35.41,23,45.58h0c-3,4.7-9.08,7.18-17.4,7.18M19.41,6.26c-7.21,0-12.65,2-15.26,6C.5,18,2.88,27.35,10.67,37.93a79.72,79.72,0,0,0,5.4,6.56,126.49,126.49,0,0,0,25.32,21A122.38,122.38,0,0,0,74.28,80.55a69.7,69.7,0,0,0,9.94,2c10.43,1.28,17.91-.74,21.06-5.68,5.72-9-3.56-26.38-22.55-42.39A136,136,0,0,0,68.05,23.71c-1.75-1.12-3.58-2.24-5.46-3.32-16-9.22-31.78-14.13-43.18-14.13"/></g></g></svg>