<svg xmlns="http://www.w3.org/2000/svg" viewBox="0 0 589.19 81.39"><defs><style>.cls-1{fill:#fff;}</style></defs><g id="图层_2" data-name="图层 2"><g id="图层_1-2" data-name="图层 1"><path class="cls-1" d="M441,81a.65.65,0,0,1-.59.41H400.81a.65.65,0,0,1-.4-.16l-9.36-8.85-.07-.06-.08-.1a.41.41,0,0,1,0-.09.63.63,0,0,1-.05-.26L394,11.74A6,6,0,0,1,396,7.59L404.65.16a.7.7,0,0,1,.43-.15.56.56,0,0,1,.25,0,.59.59,0,0,1,.33.57L402,71.22H431a.59.59,0,0,1,.41.15l9.42,8.91A.58.58,0,0,1,441,81"/><path class="cls-1" d="M135.81,16.48,128,9.06,118.53.16a.61.61,0,0,0-.41-.15H93.43a1.16,1.16,0,0,0-.72.31c-.29.24-13.07,11.15-15.33,13.52-.22.23-.2.38-.2.42l-1.6,30.87a.54.54,0,0,0,.18.45l8.29,7.83H75.76a.66.66,0,0,0-.65.62l-1.4,26.71a.58.58,0,0,0,.59.61h9.89a.65.65,0,0,0,.65-.61L87.1,37.61l8.44,8a.56.56,0,0,0,.4.17h19.79a.63.63,0,0,0,.42-.17l10.36-8.89,8.64-7.43a6,6,0,0,0,2.06-4.15l.23-4.49a5.31,5.31,0,0,0-1.63-4.14M124.5,34.13a4.46,4.46,0,0,1-3,1.5l-.24,0H87.2l1.34-25.47H122.6l.25,0a4,4,0,0,1,2.83,1.5,3.6,3.6,0,0,1,1,2.79l-.88,16.93a4,4,0,0,1-1.26,2.79"/><path class="cls-1" d="M513.52,18.42l-.93,17.81a.66.66,0,0,1-.65.62h-9.89a.59.59,0,0,1-.59-.62l1.14-21.76a.13.13,0,0,0,0-.06,3.61,3.61,0,0,0-1-2.79,4,4,0,0,0-2.84-1.49H468.53a4.45,4.45,0,0,0-3,1.49,4,4,0,0,0-1.26,2.79v.06l-1.14,21.76a.66.66,0,0,1-.65.62H452.6a.57.57,0,0,1-.58-.62L453,18.42a.62.62,0,0,1,.23-.45L472.41,1.44A5.83,5.83,0,0,1,476.16,0h16.08a5.28,5.28,0,0,1,3.6,1.44l8.08,7.63,9.42,8.9a.54.54,0,0,1,.18.45"/><path class="cls-1" d="M61.4,56.23l-.24,4.49a5.87,5.87,0,0,1-2.06,4.14l-8.64,7.43-8.88,7.63a5.82,5.82,0,0,1-3.75,1.43H10a.54.54,0,0,1-.4-.16L.18,72.29a.61.61,0,0,1-.13-.68.66.66,0,0,1,.6-.39H45.47a4.47,4.47,0,0,0,3-1.49A4,4,0,0,0,49.71,67L50.6,50a3.58,3.58,0,0,0-1-2.78,4,4,0,0,0-2.84-1.5,1.1,1.1,0,0,0-.25,0H21.77a.57.57,0,0,1-.41-.17l-9.42-8.89L4.08,29.26a5.29,5.29,0,0,1-1.63-4.13l.23-4.49a6,6,0,0,1,2.06-4.15l8.65-7.43,8.87-7.62A5.83,5.83,0,0,1,26,0H53.84a.59.59,0,0,1,.4.15l9.42,8.9a.6.6,0,0,1,.13.68.66.66,0,0,1-.6.4H18.63l-.25,0a4.48,4.48,0,0,0-3,1.5,4.05,4.05,0,0,0-1.25,2.79s0,0,0,.06l-.89,16.81v.06a3.63,3.63,0,0,0,.95,2.79,4,4,0,0,0,2.85,1.5l.24,0H42.08a.55.55,0,0,1,.4.16l9.43,8.9,7.86,7.42a5.34,5.34,0,0,1,1.63,4.14"/><path class="cls-1" d="M324.51,36.84l-.4,7.67h7.42a5.29,5.29,0,0,1,3.6,1.43l6.52,6.15a5.3,5.3,0,0,1,1.62,4.14L342,80.74a.65.65,0,0,1-.65.61h-9.89a.57.57,0,0,1-.58-.61l1.38-26.43-9.06-8.56H304.26l-1.83,35a.65.65,0,0,1-.65.61h-9.89a.57.57,0,0,1-.58-.61l3.61-69A6,6,0,0,1,297,7.59L305.62.16A.68.68,0,0,1,306,0a.56.56,0,0,1,.25,0,.57.57,0,0,1,.34.56l-1.83,35h18.92l10-8.56.8-15.31a6,6,0,0,1,2.06-4.15L345.18.16A.68.68,0,0,1,345.6,0a.51.51,0,0,1,.25,0,.57.57,0,0,1,.34.56l-1.28,24.49a6,6,0,0,1-2.06,4.15l-7.16,6.15a5.87,5.87,0,0,1-3.76,1.43Z"/><path class="cls-1" d="M512.15,54.28l-1.43,26.46a.66.66,0,0,1-.65.62H500.2a.59.59,0,0,1-.59-.62l1.64-30.44a.2.2,0,0,1,0-.07,3.65,3.65,0,0,0-1-2.79,3.93,3.93,0,0,0-2.83-1.51l-.25,0H467.46l-.25,0a4.44,4.44,0,0,0-3,1.51A4.05,4.05,0,0,0,463,50.23v.07l-1.72,30.38a.66.66,0,0,1-.65.62h-9.88a.58.58,0,0,1-.58-.62l1.51-26.4a.66.66,0,0,1,.23-.46l10.34-9,8.87-7.66a5.79,5.79,0,0,1,3.75-1.45h16.05a5.28,5.28,0,0,1,3.6,1.44l8.07,7.67,9.41,9a.58.58,0,0,1,.18.46"/><path class="cls-1" d="M207.09,18.42l-.94,17.81a.64.64,0,0,1-.64.61h-9.89a.58.58,0,0,1-.59-.61l1.14-21.77a.18.18,0,0,1,0-.06,3.67,3.67,0,0,0-1-2.78,4,4,0,0,0-2.84-1.5l-.25,0H162.34l-.25,0a4.46,4.46,0,0,0-3,1.5,4,4,0,0,0-1.26,2.78.18.18,0,0,1,0,.06l-1.14,21.77a.65.65,0,0,1-.65.61h-9.89a.57.57,0,0,1-.59-.61l.93-17.81a.7.7,0,0,1,.23-.46l10.36-8.9L166,1.44A5.88,5.88,0,0,1,169.73,0H185.8a5.32,5.32,0,0,1,3.61,1.43l8.08,7.63,9.42,8.9a.61.61,0,0,1,.18.46"/><path class="cls-1" d="M205.71,54.27l-1.42,26.46a.66.66,0,0,1-.65.62h-9.88a.58.58,0,0,1-.58-.62l1.63-30.44a.18.18,0,0,1,0-.06,3.71,3.71,0,0,0-1-2.8,4,4,0,0,0-2.84-1.5H160.78a4.46,4.46,0,0,0-3,1.5,4.06,4.06,0,0,0-1.26,2.8.18.18,0,0,1,0,.06l-1.73,30.39a.66.66,0,0,1-.65.62h-9.87a.58.58,0,0,1-.59-.62l1.52-26.41a.66.66,0,0,1,.23-.46l10.34-9,8.86-7.66a5.81,5.81,0,0,1,3.75-1.45h16.06a5.28,5.28,0,0,1,3.6,1.44l8.06,7.67,9.41,9a.58.58,0,0,1,.18.46"/><path class="cls-1" d="M280.52,16.52,272.67,9.1,263.25.2a.64.64,0,0,0-.41-.16h-24.7a1.21,1.21,0,0,0-.72.32c-.28.24-13.07,11.15-15.33,13.52a.61.61,0,0,0-.2.42l-1.6,30.87a.57.57,0,0,0,.18.45l8.29,7.83h-8.28a.66.66,0,0,0-.65.62l-1.4,26.7a.58.58,0,0,0,.58.62h9.89a.66.66,0,0,0,.65-.62l2.26-43.12,8.45,8a.55.55,0,0,0,.4.16h19.78a.66.66,0,0,0,.43-.16l10.35-8.89,8.65-7.44a5.92,5.92,0,0,0,2.05-4.14l.24-4.49a5.32,5.32,0,0,0-1.64-4.14m-11.3,17.65a4.48,4.48,0,0,1-3,1.5l-.25,0H231.92l1.33-25.47h34.31a4,4,0,0,1,2.84,1.5,3.59,3.59,0,0,1,1,2.79l-.89,16.93a4,4,0,0,1-1.25,2.79M587.55,16.48,579.7,9.06,570.27.15a.64.64,0,0,0-.4-.15h-24.7a1.13,1.13,0,0,0-.72.32c-.28.24-13.07,11.14-15.33,13.52a.55.55,0,0,0-.2.42l-1.6,30.86a.6.6,0,0,0,.18.46l8.29,7.83H527.5a.65.65,0,0,0-.65.61l-1.4,26.71a.59.59,0,0,0,.59.62h9.89a.66.66,0,0,0,.65-.62l2.26-43.12,8.44,8a.61.61,0,0,0,.4.16h19.79a.67.67,0,0,0,.42-.16l10.36-8.9,8.64-7.43A6,6,0,0,0,589,25.11l.23-4.49a5.31,5.31,0,0,0-1.63-4.14m-11.3,17.65a4.49,4.49,0,0,1-3,1.49H538.94l1.34-25.46h34.31a4,4,0,0,1,2.84,1.49,3.69,3.69,0,0,1,1,2.79l-.89,16.94a4,4,0,0,1-1.25,2.79"/><path class="cls-1" d="M270.34,44.32a.6.6,0,0,0-.41-.16h-8.28l-1.91,1.23L268.8,54l-1.38,26.43A.57.57,0,0,0,268,81h9.89a.65.65,0,0,0,.65-.61l1.4-26.71a.58.58,0,0,0-.18-.46Z"/><path class="cls-1" d="M587.1,53.43a.61.61,0,0,0-.18-.46l-9.42-8.9a.6.6,0,0,0-.41-.16h-8.28l-1.91,1.23L576,53.71l-.77,14a4.57,4.57,0,0,1-1.18,2,4.47,4.47,0,0,1-3,1.49H537.21c-.14,0-.12.17-.07.23l7.91,9.75a.6.6,0,0,0,.41.16h29.67a.67.67,0,0,0,.42-.16l8.64-7.43a5.91,5.91,0,0,0,2.06-4.15l.8-15.09a.44.44,0,0,0,0-.1Z"/></g></g></svg>